<svg id="visual" viewBox="0 0 960 540" width="960" height="540" xmlns="http://www.w3.org/2000/svg" xmlns:xlink="http://www.w3.org/1999/xlink" version="1.1"><rect x="0" y="0" width="960" height="540" fill="#99DDC8"></rect><path d="M0 319L96 287L192 305L288 276L384 258L480 325L576 281L672 324L768 344L864 278L960 263L960 541L864 541L768 541L672 541L576 541L480 541L384 541L288 541L192 541L96 541L0 541Z" fill="#95bf74"></path><path d="M0 332L96 371L192 336L288 343L384 294L480 285L576 300L672 331L768 319L864 339L960 328L960 541L864 541L768 541L672 541L576 541L480 541L384 541L288 541L192 541L96 541L0 541Z" fill="#99a44d"></path><path d="M0 338L96 360L192 375L288 351L384 355L480 355L576 357L672 417L768 414L864 378L960 406L960 541L864 541L768 541L672 541L576 541L480 541L384 541L288 541L192 541L96 541L0 541Z" fill="#9c892b"></path><path d="M0 438L96 390L192 377L288 424L384 394L480 402L576 411L672 403L768 442L864 381L960 409L960 541L864 541L768 541L672 541L576 541L480 541L384 541L288 541L192 541L96 541L0 541Z" fill="#9d6b11"></path><path d="M0 430L96 470L192 451L288 420L384 458L480 466L576 444L672 442L768 429L864 450L960 446L960 541L864 541L768 541L672 541L576 541L480 541L384 541L288 541L192 541L96 541L0 541Z" fill="#9c4b07"></path><path d="M0 466L96 502L192 494L288 465L384 483L480 518L576 515L672 516L768 486L864 496L960 490L960 541L864 541L768 541L672 541L576 541L480 541L384 541L288 541L192 541L96 541L0 541Z" fill="#96230f"></path></svg>