<svg id="visual" viewBox="0 0 900 600" width="900" height="600" xmlns="http://www.w3.org/2000/svg" xmlns:xlink="http://www.w3.org/1999/xlink" version="1.1"><rect x="0" y="0" width="900" height="600" fill="#99DDC8"></rect><path d="M0 354L90 319L180 339L270 307L360 287L450 361L540 313L630 360L720 383L810 309L900 293L900 601L810 601L720 601L630 601L540 601L450 601L360 601L270 601L180 601L90 601L0 601Z" fill="#95bf74"></path><path d="M0 369L90 412L180 373L270 381L360 327L450 317L540 334L630 367L720 354L810 377L900 364L900 601L810 601L720 601L630 601L540 601L450 601L360 601L270 601L180 601L90 601L0 601Z" fill="#99a44d"></path><path d="M0 376L90 400L180 416L270 391L360 394L450 395L540 397L630 464L720 460L810 420L900 451L900 601L810 601L720 601L630 601L540 601L450 601L360 601L270 601L180 601L90 601L0 601Z" fill="#9c892b"></path><path d="M0 487L90 433L180 419L270 471L360 438L450 447L540 456L630 448L720 492L810 424L900 454L900 601L810 601L720 601L630 601L540 601L450 601L360 601L270 601L180 601L90 601L0 601Z" fill="#9d6b11"></path><path d="M0 477L90 522L180 502L270 467L360 509L450 518L540 493L630 491L720 476L810 500L900 495L900 601L810 601L720 601L630 601L540 601L450 601L360 601L270 601L180 601L90 601L0 601Z" fill="#9c4b07"></path><path d="M0 518L90 558L180 549L270 517L360 537L450 576L540 573L630 573L720 540L810 551L900 545L900 601L810 601L720 601L630 601L540 601L450 601L360 601L270 601L180 601L90 601L0 601Z" fill="#96230f"></path></svg>